<?xml version="1.0" encoding="utf-8"?>
<!-- Generator: Adobe Illustrator 22.0.0, SVG Export Plug-In . SVG Version: 6.00 Build 0)  -->
<svg version="1.1" id="Layer_1" xmlns="http://www.w3.org/2000/svg" xmlns:xlink="http://www.w3.org/1999/xlink" x="0px" y="0px"
	 viewBox="0 0 351 365" style="enable-background:new 0 0 351 365;" xml:space="preserve">
<style type="text/css">
	.st0{fill:#FF0000;}
	.st1{fill:#ACABA2;}
</style>
<g id="Layer_1_1_">
</g>
<path class="st0" d="M89.3,141.6v11.9H112V172H89.3v61.9H64.7V172H53v-18.4h11.7v-16.2c0-17.3,11.1-27.3,30.2-27.3
	c8.9,0,16.2,1.4,23.2,4.3l-3.2,18.3c-4-2.1-8.9-3-13.5-3C93.8,129.6,89.3,134.2,89.3,141.6z"/>
<path class="st0" d="M195,121.5v110.7c-4.3,1.9-8.9,3.3-13.2,3.3c-6.2,0-10.2-5.2-10.6-12.5c-6.8,9.4-16.5,12.5-26.2,12.5
	c-18.6,0-30.8-14.4-30.8-39.1c0-28.1,16.5-44.5,44.5-44.5c3,0,7.1,0.2,11.7,0.3v-38.9c4.3-1.9,8.9-3.3,13.2-3.3
	C190.9,110.1,195,114.8,195,121.5z M170.4,170.4c-3.7-0.2-6.8-0.2-9.5-0.2c-13.3,0-21.7,9.7-21.7,26.2c0,12.4,5.4,19.7,15.1,19.7
	c9.5,0,16.2-5.6,16.2-22.4V170.4z"/>
<g>
	<polygon class="st0" points="286.7,151.1 261.6,151.1 248,172.2 260.4,189.3 	"/>
	<path class="st0" d="M236.2,159.9c-0.6-0.9-1.2-1.7-1.8-2.4c-3.4-4.1-7.4-5.6-13.6-5.6c-5.4,0-11.4,1.9-14.9,3.7l50,72.1
		c0,0.1,0.1,0.1,0.1,0.2c0.5,0.7,1,1.3,1.5,1.9c0.8,0.9,1.7,1.6,2.7,2.3c3.4,2.2,7.9,3.4,13.4,3.4c4.6,0,8.7-0.8,13-3.7L236.2,159.9
		z"/>
	<polygon class="st0" points="201.8,235.1 227,235.1 241.6,212.1 229.5,195.3 	"/>
</g>
<path class="st1" d="M232.4,58.8L232.4,58.8c0.8-0.8,1.2-1.9,1.3-3c0-1.1-0.4-2.2-1.1-3c-0.7-0.8-1.8-1.3-2.8-1.3
	c-1,0-2.1,0.3-2.9,1c-0.8,0.8-1.3,1.8-1.4,2.9c0,1.1,0.4,2.1,1.1,2.9c0.7,0.8,1.8,1.3,2.9,1.4C230.5,59.8,231.7,59.5,232.4,58.8z"/>
<path class="st1" d="M256,74.6L256,74.6c0.8-0.8,1.2-1.9,1.3-3c0-1.1-0.4-2.2-1.1-3c-0.7-0.8-1.8-1.3-2.8-1.3c-1,0-2.1,0.3-2.9,1
	c-0.8,0.8-1.3,1.8-1.4,2.9c0,1.1,0.4,2.1,1.1,2.9c0.7,0.8,1.8,1.3,2.9,1.4C254.1,75.6,255.2,75.3,256,74.6z"/>
<path class="st1" d="M85.6,295.7L85.6,295.7c0.8-0.8,1.2-1.9,1.3-3c0-1.1-0.4-2.2-1.1-3c-0.7-0.8-1.8-1.3-2.8-1.3
	c-1,0-2.1,0.3-2.9,1c-0.8,0.8-1.3,1.8-1.4,2.9c0,1.1,0.4,2.1,1.1,2.9c0.7,0.8,1.8,1.3,2.9,1.4C83.7,296.7,84.9,296.4,85.6,295.7z"/>
<path class="st1" d="M105.6,305c-0.8,0.8-1.3,1.8-1.4,2.9c0,1.1,0.4,2.1,1.1,2.9c0.7,0.8,1.7,1.2,2.7,1.2c1,0,2-0.4,2.8-1.1l0,0
	c0.8-0.7,1.4-1.7,1.4-2.7c0-1.1-0.3-2.1-1-2.9c-0.7-0.8-1.7-1.2-2.8-1.3C107.4,303.9,106.4,304.3,105.6,305z"/>
<path class="st1" d="M313.9,187.2c1.2-30.6-7.5-61.1-24.6-86.5c1.5-3.6,0.9-7.8-1.9-10.9c-3.8-4.3-10.4-4.6-14.7-0.8
	c-4.3,3.8-4.6,10.4-0.8,14.7c2.9,3.3,7.5,4.2,11.4,2.8c15.6,23.7,23.5,52,22.4,80.4c-1.5,37.1-17.6,71.3-45.3,96.2
	c-26.6,23.8-60.7,36.1-96.3,34.7c-9-0.4-18.1-1.6-26.8-3.7c-1.3-0.3-2.7,0-3.7,0.9c-0.6,0.6-1,1.3-1.2,2.1c-0.5,2.2,0.8,4.4,3,4.9
	c9.2,2.2,18.8,3.6,28.4,3.9c38.5,1.5,75.5-12.1,103.8-38.3C295.9,261.4,312.4,225.8,313.9,187.2z M276.5,99.6
	c-1.6-1.8-1.4-4.5,0.3-6.1c1.8-1.6,4.5-1.4,6.1,0.3c1.6,1.8,1.4,4.5-0.3,6.1C280.8,101.5,278,101.4,276.5,99.6z"/>
<path class="st1" d="M206.4,43c-0.6-0.9-1.5-1.6-2.5-1.8c-9.3-2.3-19-3.6-28.6-4c-37.7-1.5-74,11.5-102,36.7c-0.6,0.5-1.1,1-1.7,1.6
	c-28.3,26.2-44.8,61.9-46.3,100.4c-1.2,30.5,7.4,60.8,24.3,86c-2.5,3.8-2.3,9,1,12.6c3.8,4.3,10.4,4.6,14.7,0.8
	c4.3-3.8,4.6-10.4,0.8-14.7c-2.5-2.8-6.2-3.9-9.7-3.3c-15.9-23.8-24.1-52.5-22.9-81.2C34.7,139,50.8,104.8,78.6,80
	c26.6-23.8,60.7-36.1,96.3-34.7c9.1,0.4,18.2,1.6,27,3.8c1.3,0.3,2.7,0,3.7-0.9c0.6-0.5,1-1.3,1.2-2.1C207.1,45,206.9,43.9,206.4,43
	z M61.3,264.6c1.6,1.8,1.4,4.5-0.3,6.1c-1.8,1.6-4.5,1.4-6.1-0.3c-1.6-1.8-1.4-4.5,0.3-6.1C56.9,262.7,59.7,262.8,61.3,264.6z"/>
</svg>
